<?xml version="1.0" encoding="UTF-8"?>
<svg width="201px" height="24px" viewBox="0 0 201 24" version="1.1" xmlns="http://www.w3.org/2000/svg" xmlns:xlink="http://www.w3.org/1999/xlink">
    <title>Group@4x</title>
    <g id="Page-1" stroke="none" stroke-width="1" fill="none" fill-rule="evenodd">
        <g id="Artboard-Copy-6" transform="translate(-4.000000, -5.000000)" fill="#FFFFFF" fill-rule="nonzero">
            <g id="Group" transform="translate(4.000000, 5.000000)">
                <path d="M45.8220042,7.06723968 L46,10.2183512 L43.3053661,11.2391709 L42.5892131,12.8422849 L37.836786,14.5649784 L37.7077149,15.0522626 L34.1868248,16.2689737 C34.0461494,16.8756662 33.7767734,17.496033 33.3786969,18.1300741 L33.3384603,18.1935238 L30.9938049,19.1095057 L30.8542144,19.5785783 L30.5463135,19.756263 L28.3096905,20.1485372 L28.1308607,19.8389377 L28.7571819,19.50178 L28.5783521,19.1921805 L28.4349103,19.2105909 C27.9815586,19.2675993 27.5355742,19.3124706 27.0969568,19.3452047 C26.4970902,20.013779 26.1766348,20.8873661 26.1356149,21.9658709 L26.1337139,22.0228235 L24.4335802,23.3438963 L23.1704184,24 L23.0128339,23.8775591 L23.0128339,23.8775591 L22.7074395,23.6418824 L22.7074395,23.6418824 L22.5588309,23.5280247 L22.5588309,23.5280247 L22.412948,23.4168207 L22.412948,23.4168207 L22.2697909,23.3082705 L22.2697909,23.3082705 L22.1293595,23.202374 L22.1293595,23.202374 L21.9916538,23.0991312 L21.9916538,23.0991312 L21.7902061,22.9492428 L21.7902061,22.9492428 L21.5948913,22.8053254 L21.5948913,22.8053254 L21.4680886,22.7126976 L21.4680886,22.7126976 L21.3440116,22.6227235 L21.3440116,22.6227235 L21.2226604,22.5354032 L21.2226604,22.5354032 L21.1040349,22.4507366 L21.1040349,22.4507366 L20.9881352,22.3687238 L20.9881352,22.3687238 L20.8749612,22.2893647 L20.8749612,22.2893647 L20.7645129,22.2126593 C20.746332,22.2000962 20.7282647,22.1876437 20.7103109,22.1753018 L20.6039512,22.102577 L20.6039512,22.102577 L20.5003173,22.032506 C20.4832721,22.0210486 20.4663405,22.0097018 20.4495225,21.9984656 L20.3499772,21.9323752 L20.3499772,21.9323752 L20.2531576,21.8689386 L20.2531576,21.8689386 L20.1590637,21.8081556 L20.1590637,21.8081556 L20.0676956,21.7500264 L20.0676956,21.7500264 L19.9790532,21.694551 L19.9790532,21.694551 L19.8931366,21.6417293 L19.8931366,21.6417293 L19.8099457,21.5915613 L19.8099457,21.5915613 L19.7294805,21.5440471 C19.7162968,21.5363492 19.7032266,21.5287619 19.6902701,21.5212851 L19.6138935,21.4777515 C19.6013912,21.470717 19.5890025,21.4637932 19.5767274,21.4569798 L19.5044394,21.4174268 L19.5044394,21.4174268 L19.4348772,21.3805276 C19.4235106,21.3745988 19.4122576,21.3687807 19.4011182,21.3630731 L19.3356446,21.3301544 C19.0044058,21.1669302 18.78231,21.1099661 18.6693572,21.1592621 L18.658767,21.1643644 L18.3403468,21.3238374 L18.0716851,22.2801942 L18.5584158,22.4121089 L17.4951226,23.4142357 L16.9978726,23.2641092 L16.8190428,22.9545096 L16.9586333,22.4854371 L17.2665342,22.3077524 L16.7798035,22.1758376 L15.8856547,20.6278401 L15.8777738,20.6137373 C15.7378314,20.3546355 15.8476549,20.065221 16.2072445,19.7454938 L16.2474633,19.7104942 C16.2749363,19.687081 16.3037304,19.6635074 16.3338456,19.6397736 L16.3800092,19.6040525 C16.4193046,19.5741847 16.4606641,19.5440664 16.5040878,19.5136976 L16.557187,19.4771348 C16.5662021,19.471021 16.5752996,19.4648971 16.5844798,19.4587632 L16.6405515,19.4218397 L16.6405515,19.4218397 L16.6986047,19.3846756 C16.7084454,19.3784616 16.7183687,19.3722375 16.7283745,19.3660034 L16.7894002,19.3284786 C16.7997363,19.3222044 16.8101549,19.3159203 16.8206562,19.309626 L16.8846543,19.2717405 L16.8846543,19.2717405 L16.950634,19.2336145 C16.9617958,19.2272401 16.9730401,19.2208557 16.984367,19.2144612 L17.0533192,19.1759745 L17.0533192,19.1759745 L17.0885384,19.1566409 L16.9097086,18.8470414 L16.8803288,18.8622887 C16.2663621,19.176761 15.8420217,19.1308225 15.6073076,18.7244731 C15.3725362,18.3180245 15.5586433,17.9511846 16.1656288,17.6239533 L16.1943895,17.6086434 L14.6241609,15.6009198 L14.5828096,15.4841719 L11.6010528,13.2545722 L6.27206318,16.1113071 L4.87983032,17.2546951 L4.87234504,17.242447 C4.75109745,17.0545839 4.39018307,16.9647233 3.78960192,16.9728654 L3.71163004,16.9744372 L3.71163004,16.9744372 L3.63105426,16.9770737 L3.63105426,16.9770737 L3.54787459,16.980775 L3.54787459,16.980775 L3.46209103,16.9855411 C3.44757677,16.9864242 3.43295403,16.9873516 3.41822278,16.9883234 L3.32853338,16.9946867 C3.29820293,16.9969852 3.26743849,16.9994612 3.23624008,17.0021146 L3.14134288,17.0106074 C3.12530969,17.0121116 3.109168,17.0136601 3.09291782,17.015253 L2.99411478,17.0253429 L2.99411478,17.0253429 L2.89270785,17.0364976 C2.87558971,17.0384454 2.85836306,17.0404376 2.84102793,17.0424742 L2.73571515,17.055226 L2.73571515,17.055226 L2.62779849,17.0690426 L2.62779849,17.0690426 L2.51727792,17.0839239 L2.51727792,17.0839239 L2.40415347,17.09987 L2.40415347,17.09987 L2.28842512,17.1168808 L2.28842512,17.1168808 L2.17009287,17.1349565 L2.17009287,17.1349565 L2.04915673,17.1540968 L2.04915673,17.1540968 L1.9256167,17.174302 L1.9256167,17.174302 L1.79947277,17.1955719 L1.79947277,17.1955719 L1.67072495,17.2179066 L1.67072495,17.2179066 L1.53937323,17.241306 L1.53937323,17.241306 L1.40541762,17.2657702 L1.40541762,17.2657702 L1.26885811,17.2912991 L1.26885811,17.2912991 L1.12969471,17.3178929 L1.12969471,17.3178929 L0.987927415,17.3455513 L0.987927415,17.3455513 L0.843556225,17.3742746 L0.35682557,17.2423598 L0.177995802,16.9327603 L0,13.7816488 L2.69463385,12.7608291 L3.41078689,11.1577151 L8.16321403,9.43502162 L8.29228515,8.94773738 L11.8131752,7.73102633 C11.9538506,7.12433381 12.2232266,6.50396699 12.6213031,5.86992588 L12.6615397,5.80647619 L15.0061951,4.89049426 L15.1457856,4.42142175 L15.4536865,4.24373701 L17.6903095,3.85146279 L17.8691393,4.1610623 L17.2428181,4.49822004 L17.4216479,4.80781954 L17.5650897,4.78940908 C18.0184414,4.73240069 18.4644258,4.68752942 18.9030432,4.65479528 C19.5029098,3.98622105 19.8233652,3.11263394 19.8643851,2.0341291 L19.8662861,1.97717648 L21.5664198,0.656103748 L22.8295816,0 L22.9871661,0.12244092 L22.9871661,0.12244092 L23.2925605,0.358117578 L23.2925605,0.358117578 L23.4411691,0.471975297 L23.4411691,0.471975297 L23.587052,0.583179276 L23.587052,0.583179276 L23.7302091,0.691729516 L23.7302091,0.691729516 L23.8706405,0.797626017 L23.8706405,0.797626017 L24.0083462,0.900868778 L24.0083462,0.900868778 L24.2097939,1.05075716 L24.2097939,1.05075716 L24.4051087,1.19467462 L24.4051087,1.19467462 L24.5319114,1.28730243 L24.5319114,1.28730243 L24.6559884,1.37727649 L24.6559884,1.37727649 L24.7773396,1.46459681 L24.7773396,1.46459681 L24.8959651,1.5492634 L24.8959651,1.5492634 L25.0118648,1.63127624 L25.0118648,1.63127624 L25.1250388,1.71063534 L25.1250388,1.71063534 L25.2354871,1.78734071 C25.253668,1.79990379 25.2717353,1.8123563 25.2896891,1.82469824 L25.3960488,1.897423 L25.3960488,1.897423 L25.4996827,1.96749401 C25.5167279,1.97895137 25.5336595,1.99029815 25.5504775,2.00153437 L25.6500228,2.06762477 L25.6500228,2.06762477 L25.7468424,2.13106144 L25.7468424,2.13106144 L25.8409363,2.19184437 L25.8409363,2.19184437 L25.9323044,2.24997356 L25.9323044,2.24997356 L26.0209468,2.30544901 L26.0209468,2.30544901 L26.1068634,2.35827071 L26.1068634,2.35827071 L26.1900543,2.40843868 L26.1900543,2.40843868 L26.2705195,2.45595291 C26.2837032,2.46365081 26.2967734,2.47123813 26.3097299,2.47871488 L26.3861065,2.5222485 C26.3986088,2.52928295 26.4109975,2.53620684 26.4232726,2.54302015 L26.4955606,2.58257317 L26.4955606,2.58257317 L26.5651228,2.61947244 C26.5764894,2.62540117 26.5877424,2.63121933 26.5988818,2.63692692 L26.6643554,2.66984558 C26.9955942,2.83306984 27.21769,2.89003395 27.3306428,2.84073789 L27.341233,2.83563559 L27.6596532,2.67616259 L27.9283149,1.71980584 L27.4415842,1.58789107 L28.5048774,0.585764348 L29.0021274,0.735890849 L29.1809572,1.04549035 L29.0413667,1.51456286 L28.7334658,1.6922476 L29.2201965,1.82416237 L30.1143453,3.37215989 L30.1222262,3.38626265 C30.2621686,3.64536452 30.1523451,3.93477904 29.7927555,4.25450622 L29.7525367,4.2895058 C29.7250637,4.31291902 29.6962696,4.33649257 29.6661544,4.36022645 L29.6199908,4.39594752 C29.5806954,4.42581528 29.5393359,4.45593356 29.4959122,4.48630236 L29.442813,4.52286517 C29.4337979,4.52897902 29.4247004,4.53510288 29.4155202,4.54123676 L29.3594485,4.57816032 L29.3594485,4.57816032 L29.3013953,4.61532437 C29.2915546,4.62153842 29.2816313,4.62776249 29.2716255,4.63399658 L29.2105998,4.67152138 C29.2002637,4.67779555 29.1898451,4.68407975 29.1793438,4.69037396 L29.1153457,4.72825951 L29.1153457,4.72825951 L29.049366,4.76638555 C29.0382042,4.77275993 29.0269599,4.77914433 29.015633,4.78553875 L28.9466808,4.82402554 L28.9466808,4.82402554 L28.9114616,4.84335912 L29.0902914,5.15295862 L29.1196712,5.13771133 C29.7336379,4.82323902 30.1579783,4.86917754 30.3926924,5.27552689 C30.6274638,5.68197547 30.4413567,6.0488154 29.8343712,6.37604668 L29.8056105,6.39135664 L31.3758391,8.39908017 L31.4172192,8.51572061 L34.3989472,10.7454278 L39.7279368,7.88869286 L41.1201697,6.74530487 L41.127655,6.75755305 C41.2489026,6.94541614 41.6098169,7.03527666 42.2103981,7.02713463 L42.28837,7.02556284 L42.28837,7.02556284 L42.3689457,7.02292629 L42.3689457,7.02292629 L42.4521254,7.01922497 L42.4521254,7.01922497 L42.537909,7.0144589 C42.5524232,7.01357582 42.567046,7.01264838 42.5817772,7.01167657 L42.6714666,7.00531335 C42.7017971,7.00301481 42.7325615,7.00053882 42.7637599,6.99788536 L42.8586571,6.98939261 C42.8746903,6.98788842 42.890832,6.98633987 42.9070822,6.98474695 L43.0058852,6.97465706 L43.0058852,6.97465706 L43.1072921,6.9635024 C43.1244103,6.96155456 43.1416369,6.95956236 43.1589721,6.95752579 L43.2642848,6.94477399 L43.2642848,6.94477399 L43.3722015,6.93095742 L43.3722015,6.93095742 L43.4827221,6.91607609 L43.4827221,6.91607609 L43.5958465,6.90013 L43.5958465,6.90013 L43.7115749,6.88311915 L43.7115749,6.88311915 L43.8299071,6.86504354 L43.8299071,6.86504354 L43.9508433,6.84590316 L43.9508433,6.84590316 L44.0743833,6.82569802 L44.0743833,6.82569802 L44.2005272,6.80442811 L44.2005272,6.80442811 L44.3292751,6.78209344 L44.3292751,6.78209344 L44.4606268,6.75869401 L44.4606268,6.75869401 L44.5945824,6.73422982 L44.5945824,6.73422982 L44.7311419,6.70870086 L44.7311419,6.70870086 L44.8703053,6.68210714 L44.8703053,6.68210714 L45.0120726,6.65444866 L45.0120726,6.65444866 L45.1564438,6.62572541 L45.6431744,6.75764018 L45.8220042,7.06723968 Z M23.4780311,15.8983145 L24,15.6411045 L23.8741072,15.5675872 L23.8741072,15.5675872 L23.7465024,15.4922005 L23.7465024,15.4922005 L23.6171857,15.4149445 C23.5954902,15.4019127 23.5737234,15.388803 23.5518853,15.3756155 L23.4200007,15.2955554 C23.3978773,15.2820563 23.3756825,15.2684793 23.3534164,15.2548244 L23.2189638,15.1719604 L23.2189638,15.1719604 L23.0827993,15.0872271 L23.0827993,15.0872271 L22.9449228,15.0006244 L22.9449228,15.0006244 L22.8053344,14.9121523 L22.8053344,14.9121523 L22.6640341,14.821811 L22.6640341,14.821811 L22.5210218,14.7296003 L22.5210218,14.7296003 L22.3762975,14.6355203 L22.3762975,14.6355203 L22.2298613,14.5395709 L22.2298613,14.5395709 L22.0817132,14.4417522 L22.0817132,14.4417522 L21.856281,14.2915192 L21.856281,14.2915192 L21.703853,14.1890272 L21.703853,14.1890272 L21.4720011,14.0317842 L21.4720011,14.0317842 L21.3152932,13.9246188 L21.3152932,13.9246188 L21.0770215,13.7603658 L21.0770215,13.7603658 L20.9160337,13.6485271 L20.9160337,13.6485271 L20.6713422,13.4772641 L20.6713422,13.4772641 L20.5060746,13.3607521 L20.5060746,13.3607521 L20.2549632,13.182479 L20.2549632,13.182479 L20.0854157,13.0612937 C20.0570151,13.0409403 20.0285432,13.0205091 20,13 C20.0648099,13.0947284 20.1288824,13.1872134 20.1922176,13.2774551 L20.2866672,13.411135 C20.3336155,13.4771337 20.380149,13.5418706 20.4262677,13.6053455 L20.517952,13.7306129 L20.517952,13.7306129 L20.6085303,13.8525152 C20.6835512,13.9526983 20.75742,14.0493762 20.8301365,14.1425489 L20.9168433,14.2526735 C22.0512004,15.6804948 22.8979149,16.2332636 23.4569405,15.910974 L23.4780311,15.8983145 Z M27,13.1586046 L26.6231025,12.6189851 C24.788037,11.4619614 22.7033466,10.5889664 20.3690313,10 L18,10.8413954 L18.3768975,11.3810149 C20.211963,12.5380386 22.2966534,13.4110336 24.6309687,14 L27,13.1586046 Z M26,11 L25.9932908,10.9900734 L25.8968353,10.8500921 L25.8968353,10.8500921 L25.8014831,10.7134664 C25.7698829,10.6684838 25.7384666,10.6240605 25.7072341,10.5801965 L25.6140883,10.4502821 C25.5832236,10.4075366 25.5525428,10.3653504 25.5220458,10.3237235 L25.4311065,10.2005204 C25.2503311,9.95747006 25.076175,9.73455361 24.9086383,9.53177108 L24.8254215,9.43205764 C23.8196624,8.23929105 23.0588652,7.79161954 22.5430297,8.08904311 L22.5219689,8.10168546 L22,8.35889542 L22.1258928,8.43241278 L22.1258928,8.43241278 L22.2534976,8.50779947 L22.2534976,8.50779947 L22.3828143,8.58505549 C22.4045098,8.59808727 22.4262766,8.61119694 22.4481147,8.6243845 L22.5799993,8.70444453 C22.6021227,8.71794364 22.6243175,8.73152064 22.6465836,8.74517554 L22.7810362,8.82803956 L22.7810362,8.82803956 L22.9172007,8.91277292 L22.9172007,8.91277292 L23.0550772,8.99937561 L23.0550772,8.99937561 L23.1946656,9.08784763 L23.1946656,9.08784763 L23.3359659,9.17818898 L23.3359659,9.17818898 L23.4789782,9.27039967 L23.4789782,9.27039967 L23.6237025,9.36447969 L23.6237025,9.36447969 L23.7701387,9.46042905 L23.7701387,9.46042905 L23.9182868,9.55824774 L23.9182868,9.55824774 L24.143719,9.70848077 L24.143719,9.70848077 L24.296147,9.81097279 L24.296147,9.81097279 L24.5279989,9.96821582 L24.5279989,9.96821582 L24.6847068,10.0753812 L24.6847068,10.0753812 L24.9229785,10.2396342 L24.9229785,10.2396342 L25.0839663,10.3514729 L25.0839663,10.3514729 L25.3286578,10.5227359 L25.3286578,10.5227359 L25.4939254,10.6392479 L25.4939254,10.6392479 L25.7450368,10.817521 L25.7450368,10.817521 L25.9145843,10.9387063 C25.9429849,10.9590597 25.9714568,10.9794909 26,11 Z" id="Shape-Copy"></path>
                <path d="M54.3740234,22.2851562 L54.5898438,22.0693359 C55.0722656,20.6305339 55.4573568,19.9111328 55.7451172,19.9111328 L55.7451172,19.9111328 L55.5673828,18.8320312 L55.6816406,15.1630859 L59.1855469,13.6523438 C61.2167969,12.6197917 62.7910156,10.749349 63.9082031,8.04101562 L63.9082031,8.04101562 L64.1240234,8.04101562 L64.1113281,8.47265625 L64.3271484,8.47265625 L64.796875,7.17773438 L64.796875,6.96191406 L64.59375,6.74609375 L64.8222656,5.23535156 C64.2298177,4.0843099 63.3834635,3.50878906 62.2832031,3.50878906 L62.2832031,3.50878906 L61.4199219,3.72460938 L59.109375,3.29296875 L57.5859375,3.50878906 C57.6028646,3.07714844 57.4674479,2.86132812 57.1796875,2.86132812 C56.8919271,2.86132812 56.7395833,3.07714844 56.7226562,3.50878906 L56.7226562,3.50878906 L56.5068359,3.50878906 C56.523763,2.78938802 56.3883464,2.4296875 56.1005859,2.4296875 L56.1005859,2.4296875 L55.0214844,2.4296875 L54.8056641,2.64550781 L54.8056641,2.4296875 L54.6025391,2.21386719 L54.3867188,2.21386719 L54.1582031,2.4296875 L54.3613281,3.29296875 L54.5771484,3.07714844 L54.9960938,3.50878906 L54.9833984,3.72460938 C54.9749349,3.96158854 54.0270182,4.46516927 52.1396484,5.23535156 L52.1396484,5.23535156 L52.1015625,6.09863281 L52.2792969,7.39355469 C53.125651,7.91829427 53.531901,8.63769531 53.4980469,9.55175781 L53.4980469,9.55175781 L53.7138672,9.55175781 L53.7392578,8.68847656 L54.1582031,9.12011719 L54.1328125,10.1992188 L53.7011719,10.1992188 L53.8916016,10.8466797 L53.8535156,11.9257812 L53.6376953,11.9257812 L53.6630859,11.0625 L53.2314453,11.0625 L53.0029297,11.2783203 L53.21875,11.4941406 L52.4316406,15.5947266 L52.6474609,15.8105469 L52.1142578,18.8320312 L52.7363281,19.6953125 L52.4570312,21.421875 L54.1582031,22.2851562 L54.3740234,22.2851562 Z M56.9130859,10.6308594 L56.4814453,10.6308594 L56.7861328,8.04101562 C56.8030599,7.37239583 58.2545573,6.94075521 61.140625,6.74609375 L61.140625,6.74609375 L61.7880859,6.74609375 C60.3916016,8.55729167 58.7666016,9.85221354 56.9130859,10.6308594 L56.9130859,10.6308594 Z M56.671875,11.7099609 L56.2402344,11.7099609 L56.2402344,11.4941406 L56.4560547,11.2783203 C59.6806641,9.64485677 61.5214844,8.421875 61.9785156,7.609375 L61.9785156,7.609375 L62.1943359,7.609375 C60.6370443,9.69140625 58.796224,11.0582682 56.671875,11.7099609 L56.671875,11.7099609 Z M53.5869141,13.2207031 L53.1552734,13.2207031 L53.1806641,12.7890625 L53.3964844,12.5732422 L53.1933594,12.3574219 L53.2060547,12.1416016 L53.6376953,12.1416016 L53.5869141,13.2207031 Z M77.6826172,23.4785156 L78.7617188,22.8310547 L78.9775391,22.8310547 C78.9775391,22.4417318 78.6178385,21.8662109 77.8984375,21.1044922 L77.8984375,21.1044922 L77.8984375,20.8886719 L78.9775391,21.7519531 L78.9775391,21.5361328 C78.4020182,20.6220703 77.8264974,20.0465495 77.2509766,19.8095703 C74.5426432,16.0686849 73.031901,14.1982422 72.71875,14.1982422 L72.71875,14.1982422 L72.71875,13.3349609 L74.0136719,12.9033203 C75.1477865,12.3870443 76.0830078,11.3079427 76.8193359,9.66601562 L76.8193359,9.66601562 L76.8193359,9.234375 L74.6611328,11.1767578 L74.4453125,11.1767578 L76.6035156,8.15527344 L76.6035156,6.86035156 C76.6035156,4.8375651 75.0927734,3.54264323 72.0712891,2.97558594 L72.0712891,2.97558594 L69.4814453,2.97558594 L65.5966797,4.91796875 C65.5966797,5.34960938 65.8844401,5.56542969 66.4599609,5.56542969 L66.4599609,5.56542969 L66.4599609,5.78125 C65.8844401,5.78125 65.5966797,5.92513021 65.5966797,6.21289062 L65.5966797,6.21289062 L65.8125,6.21289062 L67.1074219,5.78125 L67.5390625,5.78125 L67.5390625,5.99707031 C66.6757812,6.14095052 66.2441406,6.35677083 66.2441406,6.64453125 L66.2441406,6.64453125 L66.2441406,6.86035156 L67.5390625,6.86035156 L67.5390625,7.29199219 L67.7548828,7.29199219 C67.7548828,6.71647135 67.898763,6.42871094 68.1865234,6.42871094 L68.1865234,6.42871094 L67.1074219,10.9609375 L66.8916016,10.9609375 L66.8916016,10.0976562 L66.6757812,10.0976562 L65.3808594,16.140625 L65.3808594,17.0039062 L65.1269531,18.9716797 L66.0791016,20.2412109 C66.6207682,20.3850911 66.8916016,20.1692708 66.8916016,19.59375 L66.8916016,19.59375 L67.1074219,19.59375 C67.1074219,20.1692708 67.2513021,20.4570312 67.5390625,20.4570312 L67.5390625,20.4570312 L68.1865234,20.4570312 L68.1865234,20.0253906 C67.9072266,19.6783854 67.9791667,19.3313802 68.4023438,18.984375 C68.6393229,18.671224 68.711263,17.7952474 68.6181641,16.3564453 C68.6858724,14.6298828 68.9736328,13.7666016 69.4814453,13.7666016 L69.4814453,13.7666016 L70.5605469,15.9248047 C71.7115885,18.319987 73.7259115,20.6940104 76.6035156,23.046875 L76.6035156,23.046875 L76.8193359,23.046875 L77.0351562,22.8310547 L77.4667969,23.4785156 L77.6826172,23.4785156 Z M69.9130859,10.7451172 L69.6972656,10.7451172 L70.7763672,5.78125 L72.0712891,5.34960938 C73.7978516,5.86588542 74.6611328,6.36946615 74.6611328,6.86035156 L74.6611328,6.86035156 L74.6611328,7.29199219 C73.7555339,8.51074219 72.1728516,9.66178385 69.9130859,10.7451172 L69.9130859,10.7451172 Z M74.8769531,6.42871094 C74.5891927,6.3610026 74.3014323,6.00130208 74.0136719,5.34960938 L74.0136719,5.34960938 L74.8769531,5.99707031 L74.8769531,6.42871094 Z M75.3085938,7.72363281 L75.0927734,7.72363281 L75.3085938,6.64453125 L75.5244141,6.64453125 L75.5244141,7.5078125 L75.3085938,7.72363281 Z M67.3232422,8.80273438 L67.5390625,7.93945312 L67.5390625,7.29199219 L67.3232422,7.29199219 L67.1074219,8.15527344 L67.1074219,8.80273438 L67.3232422,8.80273438 Z M73.7978516,9.66601562 L73.5820312,9.66601562 L74.6611328,8.15527344 L74.8769531,8.15527344 L74.8769531,8.37109375 L73.7978516,9.66601562 Z M77.0351562,9.234375 L77.2509766,8.58691406 L76.8193359,8.58691406 L76.8193359,9.234375 L77.0351562,9.234375 Z M67.1074219,10.0976562 L67.1074219,9.234375 L66.8916016,9.234375 L66.8916016,10.0976562 L67.1074219,10.0976562 Z M66.6757812,12.9033203 L66.4599609,12.9033203 L66.4599609,12.0400391 L66.6757812,12.0400391 L66.6757812,12.9033203 Z M73.7978516,19.59375 L72.9345703,18.7304688 L72.9345703,18.5146484 C73.2307943,18.5823568 73.5185547,18.9420573 73.7978516,19.59375 L73.7978516,19.59375 Z M74.8769531,20.8886719 L74.0136719,20.2412109 L74.0136719,20.0253906 L74.8769531,20.6728516 L74.8769531,20.8886719 Z M85.7441406,20.2919922 L86.8232422,20.0761719 C88.8291016,18.8828125 90.3398438,17.5878906 91.3554688,16.1914062 L91.3554688,16.1914062 L91.1396484,16.1914062 C92.5784505,13.2630208 93.2978516,11.3925781 93.2978516,10.5800781 L93.2978516,10.5800781 L93.2978516,9.71679688 C93.0100911,9.71679688 92.8662109,10.0764974 92.8662109,10.7958984 L92.8662109,10.7958984 L92.6503906,10.7958984 L92.0029297,6.04785156 L92.21875,6.04785156 L92.4345703,6.26367188 L92.8662109,6.26367188 L92.0029297,4.96875 L92.0029297,4.75292969 L92.21875,4.53710938 C90.7460938,3.52994792 89.1634115,3.02636719 87.4707031,3.02636719 C84.7369792,3.3733724 83.3701172,3.87695312 83.3701172,4.53710938 L83.3701172,4.53710938 L83.5859375,4.53710938 L85.0966797,3.67382812 C81.7366536,6.88997396 79.7942708,9.55175781 79.2695312,11.6591797 L79.2695312,11.6591797 L79.0537109,11.6591797 L79.0537109,11.4433594 C79.7223307,9.69986979 80.585612,8.1171875 81.6435547,6.6953125 L81.6435547,6.6953125 L81.6435547,6.47949219 C79.3414714,9.45865885 78.1904297,11.5449219 78.1904297,12.7382812 L78.1904297,12.7382812 L78.1904297,13.1699219 L78.40625,14.6806641 L78.1904297,14.8964844 L79.0537109,16.1914062 C79.9508464,18.9251302 82.1090495,20.2919922 85.5283203,20.2919922 L85.5283203,20.2919922 L85.7441406,20.2919922 Z M83.5859375,17.2705078 L83.3701172,17.2705078 C82.0751953,16.4072266 81.4277344,15.4000651 81.4277344,14.2490234 C82.5364583,10.2203776 83.6875,8.20605469 84.8808594,8.20605469 L84.8808594,8.20605469 L86.3916016,6.91113281 L86.1757812,6.6953125 L86.1757812,6.47949219 L86.3916016,6.6953125 L87.2548828,6.26367188 L87.2548828,6.47949219 L87.4707031,6.47949219 L87.6865234,6.26367188 L87.9023438,6.26367188 C89.3411458,6.44140625 90.0605469,6.72916667 90.0605469,7.12695312 L90.0605469,7.12695312 L90.0605469,8.85351562 C90.0605469,9.58138021 89.7008464,10.7324219 88.9814453,12.3066406 C86.9586589,15.6158854 85.1601562,17.2705078 83.5859375,17.2705078 L83.5859375,17.2705078 Z M93.0820312,8.421875 L93.0820312,7.34277344 L92.6503906,7.34277344 L92.6503906,8.421875 L93.0820312,8.421875 Z M81.2119141,11.0117188 L80.9960938,11.0117188 L81.6435547,9.71679688 L81.859375,9.71679688 L81.2119141,11.0117188 Z M89.8447266,13.1699219 L89.1972656,13.1699219 L90.0605469,11.0117188 L90.2763672,11.0117188 L90.4921875,11.6591797 L89.8447266,13.1699219 Z M91.5712891,12.9541016 L91.3554688,12.9541016 L91.3554688,12.5224609 L91.5712891,11.875 L91.7871094,11.875 L91.7871094,12.0908203 L91.5712891,12.9541016 Z M79.0537109,14.4648438 L78.8378906,14.4648438 L78.8378906,12.7382812 L79.0537109,12.7382812 L79.0537109,14.4648438 Z M88.3339844,14.4648438 L88.1181641,14.4648438 L88.9814453,13.3857422 L89.1972656,13.3857422 L88.3339844,14.4648438 Z M83.1542969,18.9970703 L82.0751953,18.3496094 L82.0751953,18.1337891 L83.1542969,18.78125 L83.1542969,18.9970703 Z M104.990234,4.08007812 L105.498047,3.21679688 L105.536133,2.78515625 L105.104492,2.78515625 L104.583984,3.86425781 L104.799805,3.86425781 L104.990234,4.08007812 Z M106.018555,21.9931641 C106.086263,21.273763 106.335938,20.9140625 106.767578,20.9140625 C106.801432,20.4824219 107.03418,20.2666016 107.46582,20.2666016 L107.46582,20.2666016 L107.999023,14.2236328 L107.795898,14.0078125 L108.011719,14.0078125 L108.240234,13.7919922 L107.859375,13.3603516 L108.316406,12.9287109 L107.935547,12.4970703 L108.392578,12.0654297 L108.417969,11.8496094 L108.214844,11.6337891 L108.27832,10.9863281 L108.697266,8.61230469 L108.379883,7.31738281 L108.811523,7.31738281 L108.887695,6.45410156 L108.697266,6.23828125 L108.925781,6.02246094 L108.989258,5.375 C108.142904,3.93619792 107.410807,3.21679688 106.792969,3.21679688 L106.792969,3.21679688 L106.780273,3.43261719 L106.170898,3.00097656 C105.739258,3.00097656 104.393555,5.23111979 102.133789,9.69140625 L102.133789,9.69140625 L101.702148,9.69140625 L104.761719,4.29589844 L104.774414,4.08007812 L104.558594,4.08007812 L104.330078,4.29589844 L101.34668,8.828125 C100.813477,5.80664062 100.297201,4.29589844 99.7978516,4.29589844 C99.476237,3.7203776 98.9303385,3.36067708 98.1601562,3.21679688 L98.1601562,3.21679688 L98.1474609,3.43261719 L97.5380859,3.00097656 L97.1064453,3.00097656 L96.6367188,3.43261719 L96.4208984,3.43261719 L96.2177734,3.21679688 L96.0019531,3.21679688 L95.9511719,3.86425781 L96.1416016,4.08007812 L96.3574219,4.08007812 L96.5986328,3.86425781 L96.5478516,4.51171875 L95.7607422,6.02246094 L95.9638672,6.23828125 L95.9003906,6.88574219 L95.6845703,6.88574219 L95.7226562,6.45410156 L95.5068359,6.45410156 L95.4814453,6.66992188 L95.6337891,7.53320312 L95.3417969,8.39648438 L95.3164062,8.61230469 L95.5195312,8.828125 L95.3037109,8.828125 C94.6520182,11.375651 94.2288411,13.7496745 94.0341797,15.9501953 L94.0341797,15.9501953 L94.0087891,16.1660156 L94.1992188,16.3818359 L93.9707031,16.5976562 L93.8818359,17.6767578 L93.8945312,20.0507812 L93.5771484,21.1298828 L95.0371094,21.7773438 L95.2529297,21.7773438 L96.4208984,20.6982422 C96.4632161,20.2666016 96.6282552,20.0507812 96.9160156,20.0507812 L96.9160156,20.0507812 L97.3222656,15.3027344 L97.2080078,14.2236328 L97.4746094,13.5761719 L97.6269531,11.8496094 L98.0712891,9.25976562 L98.2871094,9.25976562 C98.2278646,9.91992188 98.5664062,10.9990234 99.3027344,12.4970703 C99.3789062,13.7919922 99.6074219,14.4394531 99.9882812,14.4394531 L99.9882812,14.4394531 L100.96582,15.5185547 L101.181641,15.5185547 C101.799479,15.1546224 102.138021,14.5791016 102.197266,13.7919922 L102.197266,13.7919922 L102.628906,13.7919922 L102.578125,14.4394531 L102.108398,14.8710938 L102.311523,15.0869141 L102.286133,15.3027344 L102.044922,15.5185547 L102.032227,15.734375 L102.248047,15.734375 C102.848958,15.421224 103.1875,14.8457031 103.263672,14.0078125 C104.11849,11.5957031 104.905599,10.0130208 105.625,9.25976562 L105.625,9.25976562 L104.165039,18.5400391 L104.482422,19.8349609 L104.152344,21.1298828 L105.371094,21.9931641 L106.018555,21.9931641 Z M102.895508,13.3603516 L102.679688,13.3603516 L102.514648,12.7128906 C103.674154,9.87760417 104.791341,7.79134115 105.866211,6.45410156 L105.866211,6.45410156 L105.561523,7.53320312 C103.843424,10.6477865 102.954753,12.5901693 102.895508,13.3603516 L102.895508,13.3603516 Z M105.866211,13.7919922 L105.650391,13.7919922 L106.132812,8.39648438 L106.361328,8.18066406 L106.577148,8.18066406 L106.564453,8.39648438 L106.323242,8.61230469 L106.310547,8.828125 L106.500977,9.04394531 L106.285156,9.04394531 L106.488281,9.25976562 L105.866211,13.7919922 Z M105.015625,21.1298828 L104.799805,21.1298828 L104.952148,19.4033203 L105.167969,19.4033203 L105.333008,20.0507812 L105.015625,21.1298828 Z M111.426758,22.2851562 L111.642578,22.0693359 C112.125,20.6305339 112.510091,19.9111328 112.797852,19.9111328 L112.797852,19.9111328 L112.620117,18.8320312 L112.734375,15.1630859 L116.238281,13.6523438 C118.269531,12.6197917 119.84375,10.749349 120.960938,8.04101562 L120.960938,8.04101562 L121.176758,8.04101562 L121.164062,8.47265625 L121.379883,8.47265625 L121.849609,7.17773438 L121.849609,6.96191406 L121.646484,6.74609375 L121.875,5.23535156 C121.282552,4.0843099 120.436198,3.50878906 119.335938,3.50878906 L119.335938,3.50878906 L118.472656,3.72460938 L116.162109,3.29296875 L114.638672,3.50878906 C114.655599,3.07714844 114.520182,2.86132812 114.232422,2.86132812 C113.944661,2.86132812 113.792318,3.07714844 113.775391,3.50878906 L113.775391,3.50878906 L113.55957,3.50878906 C113.576497,2.78938802 113.441081,2.4296875 113.15332,2.4296875 L113.15332,2.4296875 L112.074219,2.4296875 L111.858398,2.64550781 L111.858398,2.4296875 L111.655273,2.21386719 L111.439453,2.21386719 L111.210938,2.4296875 L111.414062,3.29296875 L111.629883,3.07714844 L112.048828,3.50878906 L112.036133,3.72460938 C112.027669,3.96158854 111.079753,4.46516927 109.192383,5.23535156 L109.192383,5.23535156 L109.154297,6.09863281 L109.332031,7.39355469 C110.178385,7.91829427 110.584635,8.63769531 110.550781,9.55175781 L110.550781,9.55175781 L110.766602,9.55175781 L110.791992,8.68847656 L111.210938,9.12011719 L111.185547,10.1992188 L110.753906,10.1992188 L110.944336,10.8466797 L110.90625,11.9257812 L110.69043,11.9257812 L110.71582,11.0625 L110.28418,11.0625 L110.055664,11.2783203 L110.271484,11.4941406 L109.484375,15.5947266 L109.700195,15.8105469 L109.166992,18.8320312 L109.789062,19.6953125 L109.509766,21.421875 L111.210938,22.2851562 L111.426758,22.2851562 Z M113.96582,10.6308594 L113.53418,10.6308594 L113.838867,8.04101562 C113.855794,7.37239583 115.307292,6.94075521 118.193359,6.74609375 L118.193359,6.74609375 L118.84082,6.74609375 C117.444336,8.55729167 115.819336,9.85221354 113.96582,10.6308594 L113.96582,10.6308594 Z M113.724609,11.7099609 L113.292969,11.7099609 L113.292969,11.4941406 L113.508789,11.2783203 C116.733398,9.64485677 118.574219,8.421875 119.03125,7.609375 L119.03125,7.609375 L119.24707,7.609375 C117.689779,9.69140625 115.848958,11.0582682 113.724609,11.7099609 L113.724609,11.7099609 Z M110.639648,13.2207031 L110.208008,13.2207031 L110.233398,12.7890625 L110.449219,12.5732422 L110.246094,12.3574219 L110.258789,12.1416016 L110.69043,12.1416016 L110.639648,13.2207031 Z M127.359375,22.7675781 L127.359375,22.5517578 L126.927734,19.0986328 L126.927734,18.8828125 C126.927734,18.5950521 127.143555,18.4511719 127.575195,18.4511719 L127.575195,18.4511719 L127.575195,18.0195312 L127.791016,18.0195312 L127.791016,18.2353516 L127.575195,20.3935547 C127.829102,21.8323568 128.116862,22.5517578 128.438477,22.5517578 L128.438477,22.5517578 L128.654297,22.5517578 L128.006836,19.7460938 C129.301758,11.561849 130.165039,6.95768229 130.59668,5.93359375 L130.59668,5.93359375 L130.380859,5.93359375 L130.59668,5.28613281 L132.107422,5.0703125 C134.096354,5.0703125 135.247396,4.71061198 135.560547,3.99121094 L135.560547,3.99121094 L135.128906,3.34375 L135.776367,3.34375 L135.776367,2.91210938 L135.128906,2.69628906 L123.474609,3.12792969 C121.748047,3.12792969 120.884766,3.48763021 120.884766,4.20703125 L120.884766,4.20703125 L121.100586,4.42285156 L120.884766,5.50195312 L121.532227,5.93359375 L122.827148,5.71777344 L123.042969,5.71777344 L123.258789,5.93359375 L126.711914,5.50195312 L126.711914,6.14941406 L123.474609,6.14941406 L123.258789,6.36523438 L123.258789,6.14941406 L122.179688,6.36523438 L122.179688,6.58105469 L125.201172,6.796875 L126.711914,6.58105469 C126.364909,9.39941406 126.077148,10.9101562 125.848633,11.1132812 L125.848633,11.1132812 L125.848633,13.9189453 C125.416992,13.9189453 125.201172,14.4944661 125.201172,15.6455078 L125.201172,15.6455078 L125.632812,15.6455078 L125.632812,15.8613281 C125.632812,16.1490885 125.416992,16.2929688 124.985352,16.2929688 L124.985352,16.2929688 L124.985352,16.5087891 L125.416992,16.5087891 L125.416992,17.5878906 L124.769531,17.8037109 L125.201172,19.3144531 L124.985352,19.3144531 L124.769531,19.0986328 C124.769531,20.0126953 125.057292,21.0917969 125.632812,22.3359375 L125.632812,22.3359375 L125.848633,22.3359375 L126.064453,22.1201172 L126.927734,22.7675781 L127.359375,22.7675781 Z M134.697266,3.55957031 L133.833984,3.55957031 L133.833984,3.34375 L134.697266,3.34375 L134.697266,3.55957031 Z M125.848633,20.1777344 L125.416992,20.1777344 L125.848633,15.4296875 L126.064453,15.4296875 L126.280273,16.2929688 L125.848633,17.15625 L125.848633,17.3720703 L126.064453,17.5878906 L126.064453,17.8037109 L125.848633,18.0195312 L126.064453,18.0195312 L125.632812,18.6669922 L125.632812,19.0986328 L125.848633,20.1777344 Z M143.21582,22.2851562 L143.431641,22.0693359 C143.914062,20.6305339 144.299154,19.9111328 144.586914,19.9111328 L144.586914,19.9111328 L144.40918,18.8320312 L144.523438,15.1630859 L148.027344,13.6523438 C150.058594,12.6197917 151.632812,10.749349 152.75,8.04101562 L152.75,8.04101562 L152.96582,8.04101562 L152.953125,8.47265625 L153.168945,8.47265625 L153.638672,7.17773438 L153.638672,6.96191406 L153.435547,6.74609375 L153.664062,5.23535156 C153.071615,4.0843099 152.22526,3.50878906 151.125,3.50878906 L151.125,3.50878906 L150.261719,3.72460938 L147.951172,3.29296875 L146.427734,3.50878906 C146.444661,3.07714844 146.309245,2.86132812 146.021484,2.86132812 C145.733724,2.86132812 145.58138,3.07714844 145.564453,3.50878906 L145.564453,3.50878906 L145.348633,3.50878906 C145.36556,2.78938802 145.230143,2.4296875 144.942383,2.4296875 L144.942383,2.4296875 L143.863281,2.4296875 L143.647461,2.64550781 L143.647461,2.4296875 L143.444336,2.21386719 L143.228516,2.21386719 L143,2.4296875 L143.203125,3.29296875 L143.418945,3.07714844 L143.837891,3.50878906 L143.825195,3.72460938 C143.816732,3.96158854 142.868815,4.46516927 140.981445,5.23535156 L140.981445,5.23535156 L140.943359,6.09863281 L141.121094,7.39355469 C141.967448,7.91829427 142.373698,8.63769531 142.339844,9.55175781 L142.339844,9.55175781 L142.555664,9.55175781 L142.581055,8.68847656 L143,9.12011719 L142.974609,10.1992188 L142.542969,10.1992188 L142.733398,10.8466797 L142.695312,11.9257812 L142.479492,11.9257812 L142.504883,11.0625 L142.073242,11.0625 L141.844727,11.2783203 L142.060547,11.4941406 L141.273438,15.5947266 L141.489258,15.8105469 L140.956055,18.8320312 L141.578125,19.6953125 L141.298828,21.421875 L143,22.2851562 L143.21582,22.2851562 Z M145.754883,10.6308594 L145.323242,10.6308594 L145.62793,8.04101562 C145.644857,7.37239583 147.096354,6.94075521 149.982422,6.74609375 L149.982422,6.74609375 L150.629883,6.74609375 C149.233398,8.55729167 147.608398,9.85221354 145.754883,10.6308594 L145.754883,10.6308594 Z M145.513672,11.7099609 L145.082031,11.7099609 L145.082031,11.4941406 L145.297852,11.2783203 C148.522461,9.64485677 150.363281,8.421875 150.820312,7.609375 L150.820312,7.609375 L151.036133,7.609375 C149.478841,9.69140625 147.638021,11.0582682 145.513672,11.7099609 L145.513672,11.7099609 Z M142.428711,13.2207031 L141.99707,13.2207031 L142.022461,12.7890625 L142.238281,12.5732422 L142.035156,12.3574219 L142.047852,12.1416016 L142.479492,12.1416016 L142.428711,13.2207031 Z M161.6875,20.2919922 L162.766602,20.0761719 C164.772461,18.8828125 166.283203,17.5878906 167.298828,16.1914062 L167.298828,16.1914062 L167.083008,16.1914062 C168.52181,13.2630208 169.241211,11.3925781 169.241211,10.5800781 L169.241211,10.5800781 L169.241211,9.71679688 C168.953451,9.71679688 168.80957,10.0764974 168.80957,10.7958984 L168.80957,10.7958984 L168.59375,10.7958984 L167.946289,6.04785156 L168.162109,6.04785156 L168.37793,6.26367188 L168.80957,6.26367188 L167.946289,4.96875 L167.946289,4.75292969 L168.162109,4.53710938 C166.689453,3.52994792 165.106771,3.02636719 163.414062,3.02636719 C160.680339,3.3733724 159.313477,3.87695312 159.313477,4.53710938 L159.313477,4.53710938 L159.529297,4.53710938 L161.040039,3.67382812 C157.680013,6.88997396 155.73763,9.55175781 155.212891,11.6591797 L155.212891,11.6591797 L154.99707,11.6591797 L154.99707,11.4433594 C155.66569,9.69986979 156.528971,8.1171875 157.586914,6.6953125 L157.586914,6.6953125 L157.586914,6.47949219 C155.284831,9.45865885 154.133789,11.5449219 154.133789,12.7382812 L154.133789,12.7382812 L154.133789,13.1699219 L154.349609,14.6806641 L154.133789,14.8964844 L154.99707,16.1914062 C155.894206,18.9251302 158.052409,20.2919922 161.47168,20.2919922 L161.47168,20.2919922 L161.6875,20.2919922 Z M159.529297,17.2705078 L159.313477,17.2705078 C158.018555,16.4072266 157.371094,15.4000651 157.371094,14.2490234 C158.479818,10.2203776 159.630859,8.20605469 160.824219,8.20605469 L160.824219,8.20605469 L162.334961,6.91113281 L162.119141,6.6953125 L162.119141,6.47949219 L162.334961,6.6953125 L163.198242,6.26367188 L163.198242,6.47949219 L163.414062,6.47949219 L163.629883,6.26367188 L163.845703,6.26367188 C165.284505,6.44140625 166.003906,6.72916667 166.003906,7.12695312 L166.003906,7.12695312 L166.003906,8.85351562 C166.003906,9.58138021 165.644206,10.7324219 164.924805,12.3066406 C162.902018,15.6158854 161.103516,17.2705078 159.529297,17.2705078 L159.529297,17.2705078 Z M169.025391,8.421875 L169.025391,7.34277344 L168.59375,7.34277344 L168.59375,8.421875 L169.025391,8.421875 Z M157.155273,11.0117188 L156.939453,11.0117188 L157.586914,9.71679688 L157.802734,9.71679688 L157.155273,11.0117188 Z M165.788086,13.1699219 L165.140625,13.1699219 L166.003906,11.0117188 L166.219727,11.0117188 L166.435547,11.6591797 L165.788086,13.1699219 Z M167.514648,12.9541016 L167.298828,12.9541016 L167.298828,12.5224609 L167.514648,11.875 L167.730469,11.875 L167.730469,12.0908203 L167.514648,12.9541016 Z M154.99707,14.4648438 L154.78125,14.4648438 L154.78125,12.7382812 L154.99707,12.7382812 L154.99707,14.4648438 Z M164.277344,14.4648438 L164.061523,14.4648438 L164.924805,13.3857422 L165.140625,13.3857422 L164.277344,14.4648438 Z M159.097656,18.9970703 L158.018555,18.3496094 L158.018555,18.1337891 L159.097656,18.78125 L159.097656,18.9970703 Z M177.556641,20.2919922 L178.635742,20.0761719 C180.641602,18.8828125 182.152344,17.5878906 183.167969,16.1914062 L183.167969,16.1914062 L182.952148,16.1914062 C184.390951,13.2630208 185.110352,11.3925781 185.110352,10.5800781 L185.110352,10.5800781 L185.110352,9.71679688 C184.822591,9.71679688 184.678711,10.0764974 184.678711,10.7958984 L184.678711,10.7958984 L184.462891,10.7958984 L183.81543,6.04785156 L184.03125,6.04785156 L184.24707,6.26367188 L184.678711,6.26367188 L183.81543,4.96875 L183.81543,4.75292969 L184.03125,4.53710938 C182.558594,3.52994792 180.975911,3.02636719 179.283203,3.02636719 C176.549479,3.3733724 175.182617,3.87695312 175.182617,4.53710938 L175.182617,4.53710938 L175.398438,4.53710938 L176.90918,3.67382812 C173.549154,6.88997396 171.606771,9.55175781 171.082031,11.6591797 L171.082031,11.6591797 L170.866211,11.6591797 L170.866211,11.4433594 C171.534831,9.69986979 172.398112,8.1171875 173.456055,6.6953125 L173.456055,6.6953125 L173.456055,6.47949219 C171.153971,9.45865885 170.00293,11.5449219 170.00293,12.7382812 L170.00293,12.7382812 L170.00293,13.1699219 L170.21875,14.6806641 L170.00293,14.8964844 L170.866211,16.1914062 C171.763346,18.9251302 173.921549,20.2919922 177.34082,20.2919922 L177.34082,20.2919922 L177.556641,20.2919922 Z M175.398438,17.2705078 L175.182617,17.2705078 C173.887695,16.4072266 173.240234,15.4000651 173.240234,14.2490234 C174.348958,10.2203776 175.5,8.20605469 176.693359,8.20605469 L176.693359,8.20605469 L178.204102,6.91113281 L177.988281,6.6953125 L177.988281,6.47949219 L178.204102,6.6953125 L179.067383,6.26367188 L179.067383,6.47949219 L179.283203,6.47949219 L179.499023,6.26367188 L179.714844,6.26367188 C181.153646,6.44140625 181.873047,6.72916667 181.873047,7.12695312 L181.873047,7.12695312 L181.873047,8.85351562 C181.873047,9.58138021 181.513346,10.7324219 180.793945,12.3066406 C178.771159,15.6158854 176.972656,17.2705078 175.398438,17.2705078 L175.398438,17.2705078 Z M184.894531,8.421875 L184.894531,7.34277344 L184.462891,7.34277344 L184.462891,8.421875 L184.894531,8.421875 Z M173.024414,11.0117188 L172.808594,11.0117188 L173.456055,9.71679688 L173.671875,9.71679688 L173.024414,11.0117188 Z M181.657227,13.1699219 L181.009766,13.1699219 L181.873047,11.0117188 L182.088867,11.0117188 L182.304688,11.6591797 L181.657227,13.1699219 Z M183.383789,12.9541016 L183.167969,12.9541016 L183.167969,12.5224609 L183.383789,11.875 L183.599609,11.875 L183.599609,12.0908203 L183.383789,12.9541016 Z M170.866211,14.4648438 L170.650391,14.4648438 L170.650391,12.7382812 L170.866211,12.7382812 L170.866211,14.4648438 Z M180.146484,14.4648438 L179.930664,14.4648438 L180.793945,13.3857422 L181.009766,13.3857422 L180.146484,14.4648438 Z M174.966797,18.9970703 L173.887695,18.3496094 L173.887695,18.1337891 L174.966797,18.78125 L174.966797,18.9970703 Z M187.293945,21.0917969 L191.826172,19.3652344 L198.948242,17.6386719 L198.948242,16.9912109 L198.732422,17.2070312 L197.22168,16.9912109 L197.005859,16.9912109 L196.790039,17.2070312 L196.790039,16.9912109 C198.948242,16.7034505 200.027344,16.34375 200.027344,15.9121094 L200.027344,15.9121094 L200.027344,15.6962891 L198.516602,15.4804688 L197.65332,15.4804688 L196.574219,15.6962891 L196.358398,15.4804688 L196.142578,15.4804688 L195.926758,15.6962891 L195.926758,15.4804688 L191.826172,16.34375 L191.826172,16.1279297 L189.452148,16.7753906 C189.452148,16.3014323 191.970052,15.6539714 197.005859,14.8330078 L197.005859,14.8330078 L197.005859,14.6171875 L196.790039,14.6171875 C192.812174,15.1927083 190.366211,15.6962891 189.452148,16.1279297 L189.452148,16.1279297 L190.53125,4.04199219 L190.31543,3.82617188 L189.667969,4.2578125 L189.236328,4.2578125 C189.236328,3.39453125 189.092448,2.96289062 188.804688,2.96289062 L188.804688,2.96289062 L188.373047,2.96289062 L188.157227,3.17871094 C188.157227,3.61035156 188.013346,3.82617188 187.725586,3.82617188 L187.725586,3.82617188 L186.862305,15.2646484 L186.646484,15.2646484 L186.646484,14.1855469 L186.862305,13.3222656 L186.646484,13.1064453 L187.078125,10.3007812 L186.646484,10.3007812 L186.862305,8.79003906 L186.862305,7.92675781 L186.646484,7.92675781 L185.783203,17.6386719 L186.430664,18.5019531 L186.430664,19.1494141 C185.855143,19.2171224 185.567383,19.4329427 185.567383,19.796875 L185.567383,19.796875 L185.567383,20.0126953 L185.783203,20.0126953 L186.646484,21.0917969 L187.293945,21.0917969 Z" id="promptPool"></path>
            </g>
        </g>
    </g>
</svg>